   <svg width="538" height="307" viewBox="0 0 538 307" fill="none" xmlns="http://www.w3.org/2000/svg">
<path d="M304 152.5C304 236.171 236.171 304 152.5 304C68.8289 304 1 236.171 1 152.5C1 68.8289 68.8289 1 152.5 1C236.171 1 304 68.8289 304 152.5Z" stroke="black" stroke-width="2"/>
<path d="M536.5 154C536.5 237.671 468.671 305.5 385 305.5C301.329 305.5 233.5 237.671 233.5 154C233.5 70.3289 301.329 2.5 385 2.5C468.671 2.5 536.5 70.3289 536.5 154Z" stroke="black" stroke-width="2"/>
<path d="M417.5 152.5C417.5 236.171 349.671 304 266 304C182.329 304 114.5 236.171 114.5 152.5C114.5 68.8289 182.329 1 266 1C349.671 1 417.5 68.8289 417.5 152.5Z" stroke="black" stroke-width="2"/>
</svg>